<svg width="24" height="24" viewBox="0 0 24 24" fill="none" xmlns="http://www.w3.org/2000/svg">
<circle cx="12" cy="12" r="11.5" stroke="#899D9D"/>
<path d="M5.12475 15C5.09275 15 5.07675 14.968 5.07675 14.904C5.07675 14.84 5.09275 14.808 5.12475 14.808C5.54075 14.808 5.84475 14.7813 6.03675 14.728C6.23942 14.6747 6.37808 14.5733 6.45275 14.424C6.52742 14.264 6.56475 14.024 6.56475 13.704V10.888C6.56475 10.5467 6.52742 10.3067 6.45275 10.168C6.38875 10.0187 6.26608 9.944 6.08475 9.944C5.91408 9.944 5.57275 10.0453 5.06075 10.248H5.04475C5.01275 10.248 4.98608 10.2213 4.96475 10.168C4.94342 10.1147 4.95408 10.0773 4.99675 10.056L7.90875 8.68C7.91942 8.66933 7.93542 8.664 7.95675 8.664C7.98875 8.664 8.01542 8.68 8.03675 8.712C8.05808 8.73333 8.06875 8.76 8.06875 8.792V13.704C8.06875 14.0347 8.10075 14.2747 8.16475 14.424C8.22875 14.5733 8.35675 14.6747 8.54875 14.728C8.74075 14.7813 9.04475 14.808 9.46075 14.808C9.49275 14.808 9.50875 14.84 9.50875 14.904C9.50875 14.968 9.49275 15 9.46075 15C9.07675 15 8.77808 14.9947 8.56475 14.984L7.30075 14.968L6.03675 14.984C5.81275 14.9947 5.50875 15 5.12475 15ZM11.4613 15.176C11.1626 15.176 10.9226 15.0907 10.7413 14.92C10.5706 14.7387 10.4853 14.4987 10.4853 14.2C10.4853 13.9227 10.5706 13.6987 10.7413 13.528C10.9226 13.3573 11.1626 13.272 11.4613 13.272C11.7599 13.272 11.9893 13.3573 12.1493 13.528C12.3199 13.688 12.4053 13.912 12.4053 14.2C12.4053 14.5093 12.3199 14.7493 12.1493 14.92C11.9893 15.0907 11.7599 15.176 11.4613 15.176ZM13.6858 14.568C14.6138 13.7147 15.2911 13.0747 15.7178 12.648C16.1444 12.2107 16.4431 11.8373 16.6138 11.528C16.7951 11.2187 16.8858 10.904 16.8858 10.584C16.8858 10.1893 16.7844 9.848 16.5818 9.56C16.3791 9.26133 16.0911 9.112 15.7178 9.112C15.3231 9.112 14.9978 9.288 14.7418 9.64C14.4964 9.98133 14.2458 10.5147 13.9898 11.24C13.9898 11.2507 13.9684 11.256 13.9258 11.256C13.8298 11.256 13.7871 11.24 13.7978 11.208L14.5018 8.472C14.5018 8.45067 14.5231 8.44 14.5658 8.44C14.5978 8.44 14.6244 8.45067 14.6458 8.472C14.6778 8.48267 14.6884 8.49333 14.6778 8.504C14.6671 8.55733 14.6618 8.62133 14.6618 8.696C14.6618 8.87733 14.7418 8.968 14.9018 8.968C14.9978 8.968 15.1578 8.93067 15.3818 8.856C15.8404 8.696 16.2618 8.616 16.6458 8.616C17.2324 8.616 17.6911 8.75467 18.0218 9.032C18.3524 9.30933 18.5178 9.67733 18.5178 10.136C18.5178 10.6907 18.2991 11.1973 17.8618 11.656C17.4351 12.104 16.8431 12.5947 16.0858 13.128L15.4457 13.608C15.4138 13.64 15.4031 13.6667 15.4138 13.688C15.4351 13.7093 15.4724 13.72 15.5258 13.72C16.3791 13.72 17.0191 13.704 17.4458 13.672C17.8831 13.64 18.2244 13.5707 18.4698 13.464C18.7258 13.3467 18.8911 13.1653 18.9658 12.92C18.9764 12.888 19.0084 12.872 19.0618 12.872C19.1258 12.872 19.1578 12.888 19.1578 12.92L18.8218 14.824C18.8218 14.8667 18.8058 14.9093 18.7738 14.952C18.7524 14.984 18.7204 15 18.6778 15H13.7818C13.7391 15 13.7018 14.968 13.6698 14.904C13.6484 14.84 13.6378 14.776 13.6378 14.712C13.6378 14.648 13.6538 14.6 13.6858 14.568Z" fill="#899D9D"/>
</svg>
