<svg width="24" height="24" viewBox="0 0 24 24" fill="none" xmlns="http://www.w3.org/2000/svg">
<circle cx="12" cy="12" r="11.5" stroke="#899D9D"/>
<path d="M5.06856 14.568C5.99656 13.7147 6.6739 13.0747 7.10056 12.648C7.52723 12.2107 7.8259 11.8373 7.99656 11.528C8.1779 11.2187 8.26856 10.904 8.26856 10.584C8.26856 10.1893 8.16723 9.848 7.96456 9.56C7.7619 9.26133 7.4739 9.112 7.10056 9.112C6.7059 9.112 6.38056 9.288 6.12456 9.64C5.87923 9.98133 5.62856 10.5147 5.37256 11.24C5.37256 11.2507 5.35123 11.256 5.30856 11.256C5.21256 11.256 5.1699 11.24 5.18056 11.208L5.88456 8.472C5.88456 8.45067 5.9059 8.44 5.94856 8.44C5.98056 8.44 6.00723 8.45067 6.02856 8.472C6.06056 8.48267 6.07123 8.49333 6.06056 8.504C6.0499 8.55733 6.04456 8.62133 6.04456 8.696C6.04456 8.87733 6.12456 8.968 6.28456 8.968C6.38056 8.968 6.54056 8.93067 6.76456 8.856C7.22323 8.696 7.64456 8.616 8.02856 8.616C8.61523 8.616 9.0739 8.75467 9.40456 9.032C9.73523 9.30933 9.90056 9.67733 9.90056 10.136C9.90056 10.6907 9.6819 11.1973 9.24456 11.656C8.8179 12.104 8.2259 12.5947 7.46856 13.128L6.82856 13.608C6.79656 13.64 6.7859 13.6667 6.79656 13.688C6.8179 13.7093 6.85523 13.72 6.90856 13.72C7.7619 13.72 8.4019 13.704 8.82856 13.672C9.2659 13.64 9.60723 13.5707 9.85256 13.464C10.1086 13.3467 10.2739 13.1653 10.3486 12.92C10.3592 12.888 10.3912 12.872 10.4446 12.872C10.5086 12.872 10.5406 12.888 10.5406 12.92L10.2046 14.824C10.2046 14.8667 10.1886 14.9093 10.1566 14.952C10.1352 14.984 10.1032 15 10.0606 15H5.16456C5.1219 15 5.08456 14.968 5.05256 14.904C5.03123 14.84 5.02056 14.776 5.02056 14.712C5.02056 14.648 5.03656 14.6 5.06856 14.568ZM12.5941 15.176C12.2954 15.176 12.0554 15.0907 11.8741 14.92C11.7034 14.7387 11.6181 14.4987 11.6181 14.2C11.6181 13.9227 11.7034 13.6987 11.8741 13.528C12.0554 13.3573 12.2954 13.272 12.5941 13.272C12.8927 13.272 13.1221 13.3573 13.2821 13.528C13.4527 13.688 13.5381 13.912 13.5381 14.2C13.5381 14.5093 13.4527 14.7493 13.2821 14.92C13.1221 15.0907 12.8927 15.176 12.5941 15.176ZM17.7786 12.904C18.5252 13.0213 19.0852 13.2933 19.4586 13.72C19.8426 14.1467 20.0346 14.6373 20.0346 15.192C20.0346 15.6933 19.8532 16.2053 19.4906 16.728C19.1386 17.2507 18.5892 17.7413 17.8426 18.2C17.1066 18.6693 16.1892 19.0693 15.0906 19.4C15.0479 19.4107 15.0106 19.3893 14.9786 19.336C14.9572 19.2827 14.9679 19.2453 15.0106 19.224C16.1732 18.7547 17.0106 18.168 17.5226 17.464C18.0346 16.7707 18.2906 16.0827 18.2906 15.4C18.2906 14.7707 18.1306 14.2693 17.8106 13.896C17.4906 13.512 17.0586 13.32 16.5146 13.32C16.3012 13.32 16.0826 13.352 15.8586 13.416C15.8266 13.4267 15.7999 13.4 15.7786 13.336C15.7572 13.272 15.7626 13.2347 15.7946 13.224C16.5412 13.032 17.0852 12.744 17.4266 12.36C17.7679 11.9653 17.9386 11.416 17.9386 10.712C17.9386 10.1787 17.8586 9.77333 17.6986 9.496C17.5386 9.208 17.3039 9.064 16.9946 9.064C16.5466 9.064 16.1359 9.21867 15.7626 9.528C15.3999 9.83733 15.1012 10.2853 14.8666 10.872C14.8666 10.8827 14.8452 10.888 14.8026 10.888C14.7066 10.888 14.6639 10.8667 14.6746 10.824L15.2666 8.488C15.2879 8.46667 15.3092 8.456 15.3306 8.456C15.3626 8.456 15.3946 8.46667 15.4266 8.488C15.4586 8.49867 15.4692 8.50933 15.4586 8.52C15.4372 8.60533 15.4266 8.664 15.4266 8.696C15.4266 8.87733 15.5172 8.968 15.6986 8.968C15.8266 8.968 16.0079 8.92533 16.2426 8.84C16.4986 8.76533 16.7172 8.712 16.8986 8.68C17.0799 8.63733 17.2879 8.616 17.5226 8.616C18.1626 8.616 18.6586 8.79733 19.0106 9.16C19.3732 9.512 19.5546 9.93867 19.5546 10.44C19.5546 10.952 19.3946 11.4373 19.0746 11.896C18.7652 12.344 18.3332 12.68 17.7786 12.904Z" fill="#899D9D"/>
</svg>
