<svg width="24" height="24" viewBox="0 0 24 24" fill="none" xmlns="http://www.w3.org/2000/svg">
<circle cx="12" cy="12" r="11.5" stroke="#899D9D"/>
<path d="M10.1966 14.232C10.2286 14.232 10.2446 14.3173 10.2446 14.488C10.2446 14.6053 10.2339 14.7173 10.2126 14.824C10.2019 14.9307 10.1859 14.984 10.1646 14.984L9.10856 14.936V17.16C9.10856 17.2667 9.0659 17.3413 8.98056 17.384L7.71656 18.008C7.65256 18.0293 7.62056 18.04 7.62056 18.04C7.58856 18.04 7.57256 17.9973 7.57256 17.912V14.888C6.93256 14.8773 5.74856 14.872 4.02056 14.872C3.96723 14.872 3.92456 14.8507 3.89256 14.808C3.86056 14.7653 3.8659 14.7227 3.90856 14.68L8.86856 8.664C8.8899 8.64267 8.9219 8.632 8.96456 8.632C8.99656 8.632 9.02856 8.64267 9.06056 8.664C9.09256 8.67467 9.10856 8.696 9.10856 8.728V14.264C9.3219 14.264 9.68456 14.2533 10.1966 14.232ZM4.98056 14.328C6.2179 14.328 7.0819 14.3227 7.57256 14.312V11.08L4.90056 14.216C4.83656 14.2907 4.86323 14.328 4.98056 14.328ZM12.4534 15.176C12.1548 15.176 11.9148 15.0907 11.7334 14.92C11.5628 14.7387 11.4774 14.4987 11.4774 14.2C11.4774 13.9227 11.5628 13.6987 11.7334 13.528C11.9148 13.3573 12.1548 13.272 12.4534 13.272C12.7521 13.272 12.9814 13.3573 13.1414 13.528C13.3121 13.688 13.3974 13.912 13.3974 14.2C13.3974 14.5093 13.3121 14.7493 13.1414 14.92C12.9814 15.0907 12.7521 15.176 12.4534 15.176ZM14.6779 14.568C15.6059 13.7147 16.2833 13.0747 16.7099 12.648C17.1366 12.2107 17.4353 11.8373 17.6059 11.528C17.7873 11.2187 17.8779 10.904 17.8779 10.584C17.8779 10.1893 17.7766 9.848 17.5739 9.56C17.3713 9.26133 17.0833 9.112 16.7099 9.112C16.3153 9.112 15.9899 9.288 15.7339 9.64C15.4886 9.98133 15.2379 10.5147 14.9819 11.24C14.9819 11.2507 14.9606 11.256 14.9179 11.256C14.8219 11.256 14.7793 11.24 14.7899 11.208L15.4939 8.472C15.4939 8.45067 15.5153 8.44 15.5579 8.44C15.5899 8.44 15.6166 8.45067 15.6379 8.472C15.6699 8.48267 15.6806 8.49333 15.6699 8.504C15.6593 8.55733 15.6539 8.62133 15.6539 8.696C15.6539 8.87733 15.7339 8.968 15.8939 8.968C15.9899 8.968 16.1499 8.93067 16.3739 8.856C16.8326 8.696 17.2539 8.616 17.6379 8.616C18.2246 8.616 18.6833 8.75467 19.0139 9.032C19.3446 9.30933 19.5099 9.67733 19.5099 10.136C19.5099 10.6907 19.2913 11.1973 18.8539 11.656C18.4273 12.104 17.8353 12.5947 17.0779 13.128L16.4379 13.608C16.4059 13.64 16.3953 13.6667 16.4059 13.688C16.4273 13.7093 16.4646 13.72 16.5179 13.72C17.3713 13.72 18.0113 13.704 18.4379 13.672C18.8753 13.64 19.2166 13.5707 19.4619 13.464C19.7179 13.3467 19.8833 13.1653 19.9579 12.92C19.9686 12.888 20.0006 12.872 20.0539 12.872C20.1179 12.872 20.1499 12.888 20.1499 12.92L19.8139 14.824C19.8139 14.8667 19.7979 14.9093 19.7659 14.952C19.7446 14.984 19.7126 15 19.6699 15H14.7739C14.7313 15 14.6939 14.968 14.6619 14.904C14.6406 14.84 14.6299 14.776 14.6299 14.712C14.6299 14.648 14.6459 14.6 14.6779 14.568Z" fill="#899D9D"/>
</svg>
