<svg width="24" height="24" viewBox="0 0 24 24" fill="none" xmlns="http://www.w3.org/2000/svg">
<circle cx="12" cy="12" r="11.5" stroke="#899D9D"/>
<path d="M5.83806 11.864C7.3314 11.8853 8.42473 12.1627 9.11806 12.696C9.82206 13.2187 10.1741 13.9387 10.1741 14.856C10.1741 15.464 10.0141 16.0133 9.69406 16.504C9.37406 17.0053 8.87273 17.4853 8.19006 17.944C7.51806 18.4133 6.62206 18.8987 5.50206 19.4H5.48606C5.4434 19.4 5.40606 19.3733 5.37406 19.32C5.35273 19.2773 5.3634 19.2453 5.40606 19.224C6.55806 18.5733 7.3634 17.9173 7.82206 17.256C8.2914 16.5947 8.52606 15.8853 8.52606 15.128C8.52606 14.2427 8.26473 13.5547 7.74206 13.064C7.2194 12.5733 6.47273 12.328 5.50206 12.328C5.44873 12.328 5.40606 12.312 5.37406 12.28C5.34206 12.2373 5.3314 12.1893 5.34206 12.136L5.85406 9.288C5.86473 9.21333 5.88073 9.17067 5.90206 9.16C5.9234 9.13867 5.97673 9.12267 6.06206 9.112C7.40606 8.952 8.3074 8.84 8.76606 8.776C9.22473 8.712 9.51806 8.648 9.64606 8.584C9.78473 8.50933 9.88073 8.392 9.93406 8.232C9.94473 8.2 9.97673 8.18933 10.0301 8.2C10.0941 8.2 10.1207 8.22133 10.1101 8.264L9.79006 10.04C9.75806 10.1573 9.71006 10.2373 9.64606 10.28C9.58206 10.312 9.48073 10.328 9.34206 10.328L6.30206 10.392C6.1634 10.392 6.0834 10.4667 6.06206 10.616L5.83806 11.864ZM12.6409 15.176C12.3423 15.176 12.1023 15.0907 11.9209 14.92C11.7503 14.7387 11.6649 14.4987 11.6649 14.2C11.6649 13.9227 11.7503 13.6987 11.9209 13.528C12.1023 13.3573 12.3423 13.272 12.6409 13.272C12.9396 13.272 13.1689 13.3573 13.3289 13.528C13.4996 13.688 13.5849 13.912 13.5849 14.2C13.5849 14.5093 13.4996 14.7493 13.3289 14.92C13.1689 15.0907 12.9396 15.176 12.6409 15.176ZM14.9294 15C14.8974 15 14.8814 14.968 14.8814 14.904C14.8814 14.84 14.8974 14.808 14.9294 14.808C15.3454 14.808 15.6494 14.7813 15.8414 14.728C16.0441 14.6747 16.1828 14.5733 16.2574 14.424C16.3321 14.264 16.3694 14.024 16.3694 13.704V10.888C16.3694 10.5467 16.3321 10.3067 16.2574 10.168C16.1934 10.0187 16.0708 9.944 15.8894 9.944C15.7188 9.944 15.3774 10.0453 14.8654 10.248H14.8494C14.8174 10.248 14.7908 10.2213 14.7694 10.168C14.7481 10.1147 14.7588 10.0773 14.8014 10.056L17.7134 8.68C17.7241 8.66933 17.7401 8.664 17.7614 8.664C17.7934 8.664 17.8201 8.68 17.8414 8.712C17.8628 8.73333 17.8734 8.76 17.8734 8.792V13.704C17.8734 14.0347 17.9054 14.2747 17.9694 14.424C18.0334 14.5733 18.1614 14.6747 18.3534 14.728C18.5454 14.7813 18.8494 14.808 19.2654 14.808C19.2974 14.808 19.3134 14.84 19.3134 14.904C19.3134 14.968 19.2974 15 19.2654 15C18.8814 15 18.5828 14.9947 18.3694 14.984L17.1054 14.968L15.8414 14.984C15.6174 14.9947 15.3134 15 14.9294 15Z" fill="#899D9D"/>
</svg>
