<svg width="24" height="24" viewBox="0 0 24 24" fill="none" xmlns="http://www.w3.org/2000/svg">
<circle cx="12" cy="12" r="11.5" stroke="#899D9D"/>
<path d="M7.09275 13.336C6.59142 13.336 6.17008 13.224 5.82875 13C5.49808 12.776 5.25808 12.4987 5.10875 12.168C4.95942 11.8267 4.88475 11.4747 4.88475 11.112C4.88475 10.376 5.16208 9.77867 5.71675 9.32C6.27142 8.85067 6.99675 8.616 7.89275 8.616C8.94875 8.616 9.78075 8.94133 10.3888 9.592C11.0074 10.2427 11.3168 11.128 11.3168 12.248C11.3168 13.208 11.0821 14.168 10.6128 15.128C10.1541 16.088 9.48742 16.9467 8.61275 17.704C7.73808 18.472 6.70342 19.0373 5.50875 19.4C5.47675 19.4107 5.44475 19.3893 5.41275 19.336C5.39142 19.2827 5.40208 19.2453 5.44475 19.224C6.35142 18.808 7.12475 18.2267 7.76475 17.48C8.40475 16.744 8.88475 15.9387 9.20475 15.064C9.52475 14.2 9.68475 13.3573 9.68475 12.536C9.68475 11.992 9.61542 11.448 9.47675 10.904C9.34875 10.3493 9.13008 9.88533 8.82075 9.512C8.52208 9.13867 8.13808 8.952 7.66875 8.952C6.89008 8.952 6.50075 9.53867 6.50075 10.712C6.50075 11.3307 6.61275 11.8213 6.83675 12.184C7.06075 12.536 7.39675 12.712 7.84475 12.712C8.03675 12.712 8.21808 12.6747 8.38875 12.6C8.57008 12.5253 8.76742 12.3973 8.98075 12.216C8.99142 12.2053 9.00742 12.2 9.02875 12.2C9.06075 12.2 9.08742 12.216 9.10875 12.248C9.14075 12.28 9.15142 12.3067 9.14075 12.328C8.89542 12.6587 8.59675 12.9093 8.24475 13.08C7.89275 13.2507 7.50875 13.336 7.09275 13.336ZM13.5863 15.176C13.2876 15.176 13.0476 15.0907 12.8663 14.92C12.6956 14.7387 12.6103 14.4987 12.6103 14.2C12.6103 13.9227 12.6956 13.6987 12.8663 13.528C13.0476 13.3573 13.2876 13.272 13.5863 13.272C13.8849 13.272 14.1143 13.3573 14.2743 13.528C14.4449 13.688 14.5303 13.912 14.5303 14.2C14.5303 14.5093 14.4449 14.7493 14.2743 14.92C14.1143 15.0907 13.8849 15.176 13.5863 15.176ZM15.8748 15C15.8428 15 15.8268 14.968 15.8268 14.904C15.8268 14.84 15.8428 14.808 15.8748 14.808C16.2908 14.808 16.5948 14.7813 16.7868 14.728C16.9894 14.6747 17.1281 14.5733 17.2028 14.424C17.2774 14.264 17.3148 14.024 17.3148 13.704V10.888C17.3148 10.5467 17.2774 10.3067 17.2028 10.168C17.1388 10.0187 17.0161 9.944 16.8348 9.944C16.6641 9.944 16.3228 10.0453 15.8108 10.248H15.7948C15.7628 10.248 15.7361 10.2213 15.7148 10.168C15.6934 10.1147 15.7041 10.0773 15.7467 10.056L18.6588 8.68C18.6694 8.66933 18.6854 8.664 18.7068 8.664C18.7388 8.664 18.7654 8.68 18.7868 8.712C18.8081 8.73333 18.8188 8.76 18.8188 8.792V13.704C18.8188 14.0347 18.8508 14.2747 18.9148 14.424C18.9788 14.5733 19.1068 14.6747 19.2988 14.728C19.4908 14.7813 19.7948 14.808 20.2108 14.808C20.2428 14.808 20.2588 14.84 20.2588 14.904C20.2588 14.968 20.2428 15 20.2108 15C19.8268 15 19.5281 14.9947 19.3148 14.984L18.0508 14.968L16.7868 14.984C16.5628 14.9947 16.2588 15 15.8748 15Z" fill="#899D9D"/>
</svg>
