<svg width="56" height="56" viewBox="0 0 56 56" fill="none" xmlns="http://www.w3.org/2000/svg">
<path fill-rule="evenodd" clip-rule="evenodd" d="M32.5631 0.928955C32.1678 0.928955 31.8007 1.01391 31.4618 1.12717C32.1819 1.60855 32.5772 2.24568 32.7748 2.96776C32.789 3.06687 32.8172 3.13766 32.8313 3.23676C32.8455 3.32172 32.8595 3.40667 32.8595 3.49162C32.916 4.73755 32.5348 4.89329 32.2666 5.62953C31.8572 6.57814 31.9701 7.59754 32.4642 8.41872C32.5066 8.51783 32.5631 8.6311 32.6337 8.73021C32.0972 5.14814 35.0761 4.61013 35.6267 3.49162C35.6691 2.51469 34.8643 1.86341 34.229 1.41034C33.6219 1.04222 33.0713 0.928955 32.5631 0.928955ZM37.0526 1.73598C36.9961 2.06162 37.0385 1.97667 37.0244 2.14657C37.0103 2.25984 37.0103 2.40143 36.9962 2.51469C36.968 2.62796 36.9397 2.74122 36.8974 2.85449C36.8692 2.96776 36.8268 3.08103 36.7844 3.19429C36.7279 3.30756 36.6856 3.40667 36.6291 3.51993C36.5868 3.57659 36.5585 3.6332 36.5162 3.68983C36.488 3.73231 36.4597 3.77478 36.4315 3.81726C36.3609 3.91637 36.2903 4.01548 36.2197 4.10042C36.135 4.18538 36.0644 4.28448 35.9656 4.35528V4.36945C35.8809 4.44025 35.7962 4.5252 35.6973 4.59599C35.4009 4.82252 35.062 4.99242 34.7514 5.2048C34.6526 5.27559 34.5538 5.33222 34.4691 5.41717C34.3702 5.48796 34.2855 5.55875 34.2008 5.6437C34.102 5.72865 34.0314 5.81361 33.9467 5.91272C33.8761 5.99767 33.7914 6.09677 33.7349 6.19588C33.6643 6.29499 33.5937 6.3941 33.5373 6.49321C33.4808 6.60647 33.4384 6.70558 33.382 6.81885C33.3396 6.93211 33.2972 7.03122 33.269 7.14449C33.2267 7.27191 33.1984 7.38518 33.1702 7.49845C33.1561 7.55511 33.1561 7.62587 33.142 7.68251C33.1278 7.73916 33.1278 7.79577 33.1138 7.85241C33.1138 7.96567 33.0996 8.0931 33.0996 8.20636C33.0996 8.29132 33.0996 8.37627 33.1138 8.46122C33.1138 8.57448 33.1279 8.68775 33.1561 8.81517C33.1702 8.92844 33.1985 9.04171 33.2267 9.15498C33.2691 9.26824 33.2973 9.38151 33.3397 9.49477C33.3679 9.56557 33.4102 9.63636 33.4385 9.69299L30.1913 8.4329C29.6407 8.27716 29.1042 8.13558 28.5536 8.00815C28.2571 7.93736 27.9606 7.86657 27.6642 7.79577C26.8171 7.62587 25.9559 7.49845 25.0947 7.4135C25.0664 7.4135 25.0523 7.39932 25.0241 7.39932C24.177 7.31437 23.344 7.2719 22.4969 7.2719C21.8757 7.2719 21.2545 7.30019 20.6474 7.34269C19.7862 7.39935 18.925 7.51259 18.0638 7.65417C17.852 7.68247 17.6403 7.72497 17.4285 7.76744C16.9908 7.85239 16.5673 7.9515 16.1579 8.05061C15.9461 8.10726 15.7343 8.16388 15.5225 8.22051C15.3108 8.30545 15.1131 8.40457 14.9155 8.48952C14.7602 8.56031 14.6049 8.6311 14.4496 8.70189C14.4213 8.71607 14.3931 8.71607 14.379 8.73019C14.2378 8.80098 14.1107 8.85761 13.9837 8.9284C13.9413 8.94258 13.9131 8.9567 13.8848 8.97088C13.7295 9.04167 13.5742 9.12662 13.4472 9.19741C13.3483 9.23989 13.2495 9.29652 13.1648 9.339C13.1225 9.36729 13.066 9.39565 13.0377 9.40979C12.9107 9.48058 12.7836 9.55137 12.6707 9.62217C12.5436 9.69295 12.4307 9.76374 12.3318 9.83453C12.233 9.90533 12.1342 9.96196 12.0495 10.0327C12.0353 10.0469 12.0213 10.0469 12.0071 10.061C11.9224 10.1177 11.8236 10.1885 11.7389 10.2593C11.7389 10.2593 11.7247 10.2734 11.7107 10.2876C11.6401 10.3442 11.5695 10.4008 11.4989 10.4575C11.4707 10.4716 11.4424 10.4999 11.4142 10.5141C11.3436 10.5708 11.273 10.6415 11.2024 10.6982C11.1883 10.7265 11.1601 10.7407 11.1459 10.7548C11.0612 10.8398 10.9765 10.9106 10.8918 10.9955C10.8776 10.9955 10.8776 11.0097 10.8636 11.0238C10.7789 11.0946 10.6942 11.1796 10.6094 11.2645C10.5953 11.2787 10.5953 11.2928 10.5812 11.2928C10.5106 11.3636 10.44 11.4344 10.3695 11.5193C10.3412 11.5476 10.2989 11.576 10.2706 11.6043C10.2 11.6892 10.1153 11.7742 10.0306 11.8591C10.0165 11.8874 9.98827 11.9016 9.97413 11.9299C9.86118 12.0432 9.76235 12.1565 9.64941 12.2697C9.63527 12.2839 9.62119 12.298 9.60705 12.3122C9.38116 12.5529 9.14115 12.7936 8.88703 13.006C8.6329 13.2325 8.36466 13.4449 8.09641 13.6289C7.81405 13.8272 7.5458 13.997 7.24932 14.1669C6.96696 14.3227 6.67047 14.4643 6.35988 14.5917C6.06339 14.7191 5.7528 14.8324 5.4422 14.9315C4.84923 15.0589 4.24215 15.2996 3.71978 15.3421C3.60684 15.3421 3.47977 15.3704 3.36683 15.3846C3.23976 15.4129 3.12682 15.4412 3.01388 15.4695C2.90093 15.512 2.78798 15.5545 2.67504 15.5969C2.56209 15.6394 2.44915 15.696 2.33621 15.7527C2.23738 15.8235 2.12443 15.8801 2.0256 15.9509C1.92678 16.0217 1.82795 16.1066 1.74324 16.1916C1.64442 16.2624 1.54559 16.3615 1.46088 16.4464C1.37617 16.5456 1.29146 16.6305 1.22087 16.7296C1.15028 16.8429 1.06557 16.942 1.00909 17.0553C0.938504 17.1544 0.867915 17.2676 0.81144 17.3809C0.754945 17.5083 0.698496 17.6216 0.656141 17.749C0.613787 17.8623 0.571432 17.9897 0.529077 18.1171C0.500863 18.2304 0.472582 18.3437 0.458488 18.4569C0.458488 18.4711 0.444348 18.4852 0.444348 18.4994C0.416134 18.6268 0.416134 18.7967 0.401993 18.8817C0.387853 18.9808 0.373779 19.0657 0.373779 19.1648C0.373779 19.2215 0.373779 19.2923 0.387919 19.3489C0.402059 19.448 0.416133 19.533 0.444414 19.6179C0.472629 19.7029 0.500909 19.7878 0.543238 19.8728V19.8869C0.585592 19.9719 0.642068 20.0568 0.698536 20.1418C0.755031 20.2267 0.811487 20.3117 0.882076 20.3967C0.952665 20.4674 1.03737 20.5524 1.12208 20.6232C1.20679 20.7081 1.2915 20.7789 1.39033 20.8497C1.72916 21.147 1.81387 21.2461 2.25154 21.4727C2.32212 21.5152 2.39272 21.5435 2.47743 21.5859C2.49157 21.5859 2.50564 21.6001 2.51979 21.6001C2.51979 21.6284 2.51979 21.6426 2.53393 21.6709C2.54807 21.7842 2.57628 21.8975 2.60452 22.0107C2.63273 22.1381 2.67511 22.2514 2.71747 22.3505C2.75982 22.4355 2.78806 22.5204 2.83041 22.6054C2.84455 22.6337 2.85863 22.662 2.87277 22.6762C2.92926 22.7894 2.98571 22.8885 3.04218 22.9876C3.11277 23.0868 3.18336 23.1859 3.25395 23.285C3.32454 23.3699 3.40925 23.469 3.49396 23.554C3.57867 23.6389 3.66338 23.7097 3.76221 23.7947C3.76221 23.7947 3.77635 23.8089 3.79042 23.8089C3.87513 23.8797 3.95984 23.9505 4.04455 24.0071C4.14338 24.0779 4.24221 24.1345 4.35515 24.1911C4.45398 24.2478 4.56692 24.3044 4.67987 24.3469C4.76458 24.3894 4.8634 24.4177 4.96223 24.446C4.97637 24.4602 4.99044 24.4602 5.01873 24.4743C5.07522 24.4885 5.14578 24.5026 5.20226 24.5168C5.1599 25.2813 5.14576 26.0034 5.25875 26.2582C5.38581 26.5414 6.00701 25.6778 6.62821 24.6867C6.5435 25.6636 6.48703 26.8104 6.62821 27.1502C6.78351 27.5042 7.6306 26.3998 8.36475 25.1822C18.3745 22.8602 27.509 29.7978 28.469 39.5954C28.2855 38.0663 26.4077 37.2168 25.5465 37.4292C25.123 38.4769 24.403 39.8219 23.2453 40.6573C23.3441 39.7228 23.3018 38.7601 23.1041 37.8256C22.7935 39.1282 22.1864 40.3458 21.3534 41.3935C20.0122 41.4926 18.671 40.8413 17.9651 39.8644C17.9086 39.8219 17.8945 39.737 17.8521 39.6804C17.8098 39.5812 17.7674 39.4821 17.7392 39.383C17.6968 39.2839 17.6686 39.1848 17.6545 39.0857C17.6403 38.9866 17.6403 38.8875 17.6403 38.7742C17.6403 38.7034 17.6403 38.6326 17.6403 38.5618C17.6545 38.4627 17.6827 38.3636 17.7109 38.2645C17.7391 38.1654 17.7674 38.0663 17.8098 37.9672C17.8663 37.8681 17.9086 37.769 17.9792 37.6699C18.2192 36.9903 18.2192 36.4381 17.7815 36.1125C17.6968 36.0558 17.6121 36.0133 17.5133 35.9709C17.4568 35.9567 17.3862 35.9284 17.3297 35.9142C17.2874 35.9 17.2592 35.8859 17.2168 35.8717C17.118 35.8434 17.0191 35.8151 16.9203 35.8009C16.8215 35.7726 16.7227 35.7585 16.6238 35.7585C16.525 35.7443 16.4121 35.7302 16.3132 35.7302C16.2427 35.7302 16.1721 35.7443 16.1015 35.7443C15.9885 35.7443 15.8897 35.7585 15.7909 35.7868C15.692 35.801 15.5932 35.8151 15.4944 35.8435C15.3956 35.8718 15.2967 35.9001 15.1979 35.9426C15.0991 35.9851 15.0144 36.0275 14.9155 36.07C14.8308 36.1125 14.7461 36.1691 14.6473 36.2116C11.3578 38.3637 13.3202 43.404 15.565 44.8623C14.7179 45.0181 13.8567 45.2022 13.6167 45.3862C13.6025 45.4004 13.5885 45.4145 13.5885 45.4145C14.1955 45.7826 14.8309 46.0941 15.4944 46.3631C16.398 46.6604 17.358 46.9294 17.7816 47.0427V47.0569C18.9534 47.2976 20.1393 47.3825 21.3393 47.3117C27.5937 46.8728 32.7186 42.1015 33.6504 35.8152C33.6786 35.9426 33.7069 36.0558 33.7351 36.1833C33.7774 36.4381 33.8339 36.7071 33.8621 36.9761V36.9903C33.8903 37.1178 33.9045 37.2452 33.9186 37.3585V37.4151C33.9328 37.5425 33.9468 37.67 33.9468 37.7832C33.961 37.939 33.9751 38.0947 33.9751 38.2505V38.477C33.9751 38.5478 33.9892 38.6327 33.9892 38.7035C33.9892 38.7885 33.9751 38.8734 33.9751 38.9584V39.1566C33.9751 39.2557 33.9609 39.3406 33.9609 39.4398C33.9609 39.4964 33.9609 39.553 33.9468 39.6238C33.9468 39.7229 33.9326 39.822 33.9326 39.9353C33.9185 39.9778 33.9185 40.0202 33.9185 40.0627C33.9043 40.176 33.8903 40.2751 33.8761 40.3884C33.8761 40.4308 33.8761 40.4733 33.862 40.5158C33.8478 40.6574 33.8196 40.7848 33.8055 40.9264V40.9406V40.9548C33.7773 41.0822 33.749 41.2238 33.7208 41.3512V41.3937C33.6926 41.5211 33.6643 41.6485 33.6361 41.7759C33.6361 41.7901 33.6219 41.8184 33.6219 41.8326C33.5937 41.96 33.5654 42.0874 33.5231 42.2149V42.2573C33.4808 42.3989 33.4384 42.5263 33.4102 42.6538C33.396 42.668 33.396 42.6821 33.396 42.6821C33.3537 42.8237 33.3113 42.9652 33.269 43.1068C33.2125 43.2484 33.1701 43.3758 33.1137 43.5174C33.0572 43.659 33.0148 43.8006 32.9584 43.928C32.9019 44.0696 32.8454 44.197 32.7889 44.3386H32.7748C32.7183 44.466 32.6618 44.6076 32.5912 44.735C32.5771 44.7775 32.563 44.8058 32.5489 44.8341C32.5348 44.8483 32.5348 44.8624 32.5207 44.8766C31.603 46.7314 30.2477 48.3596 28.5535 49.6338C28.4405 49.7046 28.3276 49.7896 28.2146 49.8745C28.1864 49.9028 28.1441 49.917 28.1158 49.9453C28.017 50.0161 27.9182 50.0869 27.8052 50.1577L27.8476 50.2426H27.8617C28.0594 50.2143 28.257 50.186 28.4547 50.1577H28.4688C28.8359 50.101 29.203 50.0302 29.57 49.9595C29.6688 49.9453 29.7818 49.917 29.8806 49.8887C29.9512 49.8745 30.0077 49.8604 30.0783 49.8462C30.1771 49.832 30.2759 49.8037 30.3748 49.7895C30.4595 49.7612 30.5442 49.7471 30.6289 49.7187C32.0407 49.3789 33.4102 48.9117 34.7231 48.3595C32.4784 51.4319 29.4712 53.9096 25.9558 55.5378C27.5794 55.4246 29.203 55.1555 30.7701 54.7025C36.4597 53.0176 41.2457 49.1807 44.1117 44.0129C43.5329 47.2835 42.234 50.3983 40.3139 53.1167C41.6834 52.2106 42.9399 51.1629 44.0835 49.9736C47.246 46.6605 49.3213 42.4555 50.0272 37.939C50.5072 40.176 50.6484 42.4838 50.4367 44.7633C60.63 30.5059 51.2837 15.7246 47.373 11.831C47.3589 11.8027 47.3448 11.7885 47.3448 11.7602C47.3306 11.7744 47.3306 11.7744 47.3306 11.7885C47.3306 11.7743 47.3306 11.7743 47.3165 11.7602C47.3165 11.9301 47.3024 12.1 47.2883 12.2699C47.2459 12.5956 47.2036 12.907 47.1471 13.2185C47.0765 13.53 46.9918 13.8415 46.9071 14.153C46.8083 14.4503 46.6953 14.7618 46.5683 15.0591C46.4412 15.3423 46.3 15.6396 46.1447 15.9228C45.9894 16.1918 45.82 16.4749 45.6365 16.7298C45.4529 16.9988 45.2553 17.2537 45.0576 17.4943C44.8458 17.7492 44.62 17.9757 44.3941 18.2023C44.2529 18.3297 44.1258 18.443 43.9846 18.5562C43.8717 18.6553 43.7729 18.7403 43.6599 18.8394C43.4058 19.0376 43.1517 19.2217 42.8693 19.3916C42.6011 19.5615 42.3187 19.7314 42.0363 19.8729C41.7399 20.0145 41.4434 20.142 41.1469 20.2694C40.8504 20.3826 40.5398 20.4818 40.2292 20.5667C39.9186 20.6517 39.5939 20.7224 39.2833 20.7791C38.9586 20.8357 38.6339 20.864 38.3233 20.8923C38.0974 20.9065 37.8715 20.9206 37.6456 20.9206C37.3209 20.9206 36.9962 20.8923 36.6856 20.864C36.3608 20.8357 36.0361 20.7932 35.7255 20.7224C35.4008 20.6657 35.0902 20.5808 34.7796 20.4817H34.7655C35.0761 20.4534 35.3867 20.425 35.6973 20.3684C36.022 20.3118 36.3326 20.241 36.6432 20.1561C36.9538 20.0711 37.2644 19.972 37.5609 19.8587C37.8715 19.7455 38.168 19.6039 38.4503 19.4623C38.7468 19.3207 39.015 19.165 39.2974 18.9951C39.5656 18.811 39.8339 18.627 40.088 18.4287C40.3421 18.2305 40.5821 18.0182 40.808 17.7916C41.0481 17.5792 41.2598 17.3386 41.4716 17.0979C41.6834 16.843 41.881 16.5882 42.0646 16.3333C42.0928 16.2908 42.1211 16.2342 42.1493 16.1917C42.2905 15.9652 42.4316 15.7387 42.5587 15.5121C42.714 15.229 42.8552 14.9458 42.9822 14.6485C43.1093 14.3511 43.2222 14.0538 43.3211 13.7423C43.4199 13.445 43.4905 13.1335 43.5611 12.822C43.6176 12.4964 43.674 12.1849 43.7023 11.8734C43.7305 11.5478 43.7588 11.2221 43.7588 10.9107C43.7588 10.6841 43.7446 10.4576 43.7305 10.2311C43.7023 9.90543 43.66 9.59394 43.6176 9.28246C43.5611 8.95682 43.4905 8.64534 43.4058 8.33385C43.307 8.03653 43.2082 7.72504 43.0952 7.42772C42.9823 7.13039 42.8411 6.83306 42.6999 6.54989C42.5446 6.26673 42.3893 5.98356 42.2199 5.71456C42.0364 5.44555 41.8528 5.1907 41.6552 4.93584C41.4434 4.69515 41.2316 4.45446 41.0057 4.21377C40.8928 4.10051 40.7657 3.97308 40.6387 3.85982C40.0034 3.36427 39.3398 2.89704 38.6762 2.47229C38.5774 2.41564 38.4927 2.37318 38.3939 2.33071C37.928 2.03339 37.4903 1.87756 37.0526 1.73598Z" fill="white"/>
</svg>
