<svg width="53" height="39" viewBox="0 0 53 39" fill="none" xmlns="http://www.w3.org/2000/svg">
<path d="M45.161 22.282C43.3666 22.2913 41.8126 22.7218 40.5106 23.3646C40.0346 22.4138 39.5517 21.5773 39.4712 20.9555C39.3767 20.2298 39.267 19.7958 39.3813 18.9313C39.4956 18.0668 39.9961 16.8418 39.9891 16.7496C39.9821 16.6575 39.8771 16.2176 38.8423 16.2095C37.8075 16.2025 36.922 16.409 36.8182 16.682C36.7143 16.955 36.5148 17.5698 36.3911 18.2115C36.2103 19.1495 34.325 22.4966 33.2552 24.2466C32.9052 23.563 32.6077 22.961 32.5458 22.485C32.4513 21.7593 32.3417 21.3253 32.456 20.4608C32.5703 19.5963 33.0708 18.3713 33.0638 18.2791C33.0568 18.187 32.9518 17.7471 31.917 17.739C30.8822 17.732 29.9967 17.9385 29.8928 18.2115C29.789 18.4845 29.677 19.1226 29.4658 19.741C29.2535 20.3581 26.7487 25.9406 26.0918 27.3885C25.757 28.1258 25.4665 28.7185 25.2612 29.1221L25.26 29.1198C25.26 29.1198 25.2472 29.1466 25.2262 29.1921C25.05 29.5363 24.9462 29.7265 24.9462 29.7265C24.9462 29.7265 24.9473 29.7288 24.9497 29.7335C24.8097 29.9866 24.6603 30.2211 24.5868 30.2211C24.5355 30.2211 24.4317 29.548 24.609 28.624C24.9823 26.6873 25.8772 23.668 25.869 23.563C25.8643 23.5093 26.0358 22.9831 25.2845 22.7078C24.5542 22.4406 24.294 22.8863 24.2275 22.8875C24.1633 22.8886 24.1155 23.045 24.1155 23.045C24.1155 23.045 24.9287 19.6488 22.5638 19.6488C21.0845 19.6488 19.0358 21.267 18.0267 22.7335C17.3897 23.0811 16.0258 23.8255 14.5803 24.62C14.025 24.9256 13.458 25.2371 12.9202 25.5335C12.884 25.4926 12.8467 25.453 12.8093 25.4121C9.94049 22.352 4.63915 20.1878 4.86315 16.073C4.94482 14.5773 5.46515 10.6386 15.0517 5.86231C22.9045 1.94931 29.1917 3.02615 30.2778 5.41198C31.8295 8.82215 26.9178 15.1583 18.7628 16.073C15.656 16.4218 14.0192 15.2166 13.612 14.7686C13.1838 14.2961 13.1197 14.2751 12.9598 14.3638C12.6997 14.5085 12.8642 14.925 12.9598 15.1735C13.2037 15.807 14.2023 16.9305 15.9057 17.4905C17.4048 17.9828 21.053 18.2523 25.4642 16.5455C30.4062 14.6345 34.2643 9.31681 33.1303 4.87298C31.9777 0.353315 24.483 -1.13302 17.3897 1.38698C13.1628 2.88731 8.59299 5.24165 5.30649 8.31465C1.39932 11.9686 0.776319 15.1501 1.03299 16.479C1.94532 21.2016 8.45415 24.277 11.0605 26.5555C10.9322 26.6266 10.8108 26.6931 10.7012 26.7538C9.39449 27.4001 4.43265 29.9971 3.19132 32.74C1.78315 35.8515 3.41532 38.0845 4.49565 38.3855C7.84282 39.3165 11.2775 37.6411 13.1243 34.8878C14.97 32.1356 14.7448 28.5505 13.8978 26.9148C13.8873 26.895 13.8757 26.8751 13.8652 26.8541C14.2023 26.6546 14.5465 26.4516 14.8872 26.251C15.5522 25.8601 16.2055 25.4961 16.7713 25.1881C16.454 26.0561 16.2218 27.098 16.1017 28.6018C15.9593 30.3681 16.6838 32.6513 17.6312 33.5496C18.0488 33.9451 18.5505 33.9545 18.8678 33.9545C19.9703 33.9545 20.4732 33.0375 21.0273 31.9525C21.7063 30.6225 22.3095 29.0731 22.3095 29.0731C22.3095 29.0731 21.5535 33.2568 23.6138 33.2568C24.3652 33.2568 25.12 32.2826 25.4572 31.7868C25.4583 31.7926 25.4583 31.795 25.4583 31.795C25.4583 31.795 25.4782 31.7623 25.5167 31.6981C25.5948 31.5791 25.6392 31.5033 25.6392 31.5033C25.6392 31.5033 25.6403 31.4951 25.6427 31.4811C25.9448 30.9573 26.6145 29.7626 27.6178 27.7921C28.9152 25.2465 30.1588 22.0568 30.1588 22.0568C30.1588 22.0568 30.2743 22.8361 30.6535 24.1265C30.8763 24.8848 31.35 25.7236 31.7245 26.5286C31.4235 26.9463 31.2392 27.1855 31.2392 27.1855C31.2392 27.1855 31.2403 27.1901 31.2438 27.1983C31.0035 27.518 30.734 27.8621 30.4517 28.1981C29.4273 29.4173 28.2082 30.8103 28.0448 31.2116C27.8523 31.6853 27.8978 32.033 28.27 32.3141C28.5418 32.5183 29.0248 32.551 29.53 32.5171C30.4505 32.4553 31.0968 32.2266 31.4165 32.0878C31.9147 31.9116 32.4945 31.6351 33.0382 31.235C34.0427 30.4965 34.6482 29.4406 34.5898 28.0406C34.5572 27.2695 34.3122 26.5053 34.0007 25.7843C34.0917 25.6536 34.1827 25.5206 34.2748 25.3876C35.858 23.073 37.0865 20.5296 37.0865 20.5296C37.0865 20.5296 37.202 21.309 37.5812 22.5993C37.7725 23.2515 38.1517 23.9643 38.4923 24.662C37.0037 25.8718 36.0808 27.2776 35.76 28.1993C35.1673 29.905 35.6317 30.6773 36.502 30.8535C36.8963 30.9328 37.454 30.752 37.8728 30.5746C38.3943 30.402 39.0208 30.1138 39.6065 29.6833C40.611 28.9448 41.577 27.9111 41.5186 26.5123C41.4918 25.8753 41.3192 25.243 41.0847 24.6363C42.347 24.1101 43.9803 23.8185 46.0616 24.0611C50.5265 24.5826 51.4015 27.3698 51.2347 28.5365C51.0667 29.7031 50.131 30.3448 49.8172 30.5385C49.5045 30.7321 49.4088 30.7998 49.4345 30.9433C49.473 31.1521 49.6176 31.1451 49.8848 31.0996C50.2523 31.0378 52.2287 30.1511 52.3138 27.9975C52.42 25.2605 49.8008 22.2575 45.161 22.282ZM10.7478 33.8833C9.26849 35.4968 7.20349 36.1058 6.31682 35.5925C5.36015 35.0383 5.73932 32.663 7.55349 30.9503C8.65949 29.9073 10.0875 28.946 11.0348 28.3545C11.2507 28.225 11.5668 28.0348 11.9518 27.8038C12.016 27.7676 12.0522 27.7478 12.0522 27.7478L12.051 27.7455C12.1257 27.7011 12.2015 27.6556 12.2797 27.6078C12.9412 30.045 12.3007 32.1905 10.7478 33.8833ZM21.522 26.5601C21.0075 27.8155 19.9295 31.0285 19.2727 30.8558C18.7092 30.7076 18.3662 28.2658 19.1607 25.8625C19.5597 24.6526 20.4137 23.2071 20.9153 22.646C21.7227 21.743 22.6117 21.4478 22.8275 21.8141C23.1017 22.2808 21.8452 25.7726 21.522 26.5601ZM30.4225 30.8068C30.2043 30.9211 30.0037 30.9923 29.9115 30.9375C29.8427 30.8966 30.0013 30.7461 30.0013 30.7461C30.0013 30.7461 31.1143 29.548 31.553 29.0031C31.8085 28.6858 32.1037 28.309 32.4257 27.889C32.428 27.931 32.4292 27.973 32.4292 28.0138C32.4268 29.4488 31.0408 30.4171 30.4225 30.8068ZM37.279 29.2435C37.1157 29.128 37.1436 28.7535 37.6791 27.5856C37.8891 27.1271 38.3698 26.356 39.2028 25.6186C39.2996 25.922 39.358 26.2125 39.3568 26.4831C39.3463 28.2891 38.0583 28.9635 37.279 29.2435Z" fill="white"/>
</svg>
