<svg width="56" height="56" viewBox="0 0 56 56" fill="none" xmlns="http://www.w3.org/2000/svg">
<path fill-rule="evenodd" clip-rule="evenodd" d="M0 0V56H56V0H0ZM41.3389 45.3413C38.8609 45.3413 37.6911 43.666 36.6147 41.9176L32.6667 44.5387C34.1413 47.4367 36.7905 49.7778 41.4556 49.7778C46.2249 49.7778 49.7778 47.3122 49.7778 42.8136C49.7778 38.6384 47.3698 36.7811 43.0998 34.9627L41.8445 34.4276C39.69 33.4989 38.7567 32.8922 38.7567 31.3927C38.7567 30.1793 39.6885 29.2507 41.16 29.2507C42.602 29.2507 43.5322 29.8558 44.3925 31.3927L48.3031 28.8929C46.648 25.9964 44.3536 24.8904 41.16 24.8904C36.6753 24.8904 33.8053 27.7433 33.8053 31.4922C33.8053 35.56 36.2149 37.4858 39.8378 39.0227L41.0931 39.5578C43.3829 40.5549 44.5122 41.1631 44.5122 42.8758C44.5122 44.3069 43.4202 45.3413 41.3389 45.3413ZM22.2958 44.5387C20.5753 44.5387 19.3791 43.4544 18.592 42.0451L14.518 44.5387C15.6971 47.0618 18.5905 49.7778 22.5991 49.7778C27.0356 49.7778 30.0736 47.3947 30.0736 42.1571V24.8889H24.8889V41.3607C24.8889 43.8884 23.9416 44.5387 22.2958 44.5387Z" fill="white"/>
</svg>
