<svg width="24" height="24" viewBox="0 0 24 24" fill="none" xmlns="http://www.w3.org/2000/svg">
<circle cx="12" cy="12" r="11.5" stroke="#899D9D"/>
<path d="M4.69506 15C4.66306 15 4.64706 14.968 4.64706 14.904C4.64706 14.84 4.66306 14.808 4.69506 14.808C5.11106 14.808 5.41506 14.7813 5.60706 14.728C5.80973 14.6747 5.9484 14.5733 6.02306 14.424C6.09773 14.264 6.13506 14.024 6.13506 13.704V10.888C6.13506 10.5467 6.09773 10.3067 6.02306 10.168C5.95906 10.0187 5.8364 9.944 5.65506 9.944C5.4844 9.944 5.14306 10.0453 4.63106 10.248H4.61506C4.58306 10.248 4.5564 10.2213 4.53506 10.168C4.51373 10.1147 4.5244 10.0773 4.56706 10.056L7.47906 8.68C7.48973 8.66933 7.50573 8.664 7.52706 8.664C7.55906 8.664 7.58573 8.68 7.60706 8.712C7.6284 8.73333 7.63906 8.76 7.63906 8.792V13.704C7.63906 14.0347 7.67106 14.2747 7.73506 14.424C7.79906 14.5733 7.92706 14.6747 8.11906 14.728C8.31106 14.7813 8.61506 14.808 9.03106 14.808C9.06306 14.808 9.07906 14.84 9.07906 14.904C9.07906 14.968 9.06306 15 9.03106 15C8.64706 15 8.3484 14.9947 8.13506 14.984L6.87106 14.968L5.60706 14.984C5.38306 14.9947 5.07906 15 4.69506 15ZM11.0316 15.176C10.7329 15.176 10.4929 15.0907 10.3116 14.92C10.1409 14.7387 10.0556 14.4987 10.0556 14.2C10.0556 13.9227 10.1409 13.6987 10.3116 13.528C10.4929 13.3573 10.7329 13.272 11.0316 13.272C11.3302 13.272 11.5596 13.3573 11.7196 13.528C11.8902 13.688 11.9756 13.912 11.9756 14.2C11.9756 14.5093 11.8902 14.7493 11.7196 14.92C11.5596 15.0907 11.3302 15.176 11.0316 15.176ZM19.3841 14.232C19.4161 14.232 19.4321 14.3173 19.4321 14.488C19.4321 14.6053 19.4214 14.7173 19.4001 14.824C19.3894 14.9307 19.3734 14.984 19.3521 14.984L18.2961 14.936V17.16C18.2961 17.2667 18.2534 17.3413 18.1681 17.384L16.9041 18.008C16.8401 18.0293 16.8081 18.04 16.8081 18.04C16.7761 18.04 16.7601 17.9973 16.7601 17.912V14.888C16.1201 14.8773 14.9361 14.872 13.2081 14.872C13.1547 14.872 13.1121 14.8507 13.0801 14.808C13.0481 14.7653 13.0534 14.7227 13.0961 14.68L18.0561 8.664C18.0774 8.64267 18.1094 8.632 18.1521 8.632C18.1841 8.632 18.2161 8.64267 18.2481 8.664C18.2801 8.67467 18.2961 8.696 18.2961 8.728V14.264C18.5094 14.264 18.8721 14.2533 19.3841 14.232ZM14.1681 14.328C15.4054 14.328 16.2694 14.3227 16.7601 14.312V11.08L14.0881 14.216C14.0241 14.2907 14.0507 14.328 14.1681 14.328Z" fill="#899D9D"/>
</svg>
