<svg width="24" height="24" viewBox="0 0 24 24" fill="none" xmlns="http://www.w3.org/2000/svg">
<circle cx="12" cy="12" r="11.5" stroke="#899D9D"/>
<path d="M4.91381 15C4.88181 15 4.86581 14.968 4.86581 14.904C4.86581 14.84 4.88181 14.808 4.91381 14.808C5.32981 14.808 5.63381 14.7813 5.82581 14.728C6.02848 14.6747 6.16715 14.5733 6.24181 14.424C6.31648 14.264 6.35381 14.024 6.35381 13.704V10.888C6.35381 10.5467 6.31648 10.3067 6.24181 10.168C6.17781 10.0187 6.05515 9.944 5.87381 9.944C5.70315 9.944 5.36181 10.0453 4.84981 10.248H4.83381C4.80181 10.248 4.77515 10.2213 4.75381 10.168C4.73248 10.1147 4.74315 10.0773 4.78581 10.056L7.69781 8.68C7.70848 8.66933 7.72448 8.664 7.74581 8.664C7.77781 8.664 7.80448 8.68 7.82581 8.712C7.84715 8.73333 7.85781 8.76 7.85781 8.792V13.704C7.85781 14.0347 7.88981 14.2747 7.95381 14.424C8.01781 14.5733 8.14581 14.6747 8.33781 14.728C8.52981 14.7813 8.83381 14.808 9.24981 14.808C9.28181 14.808 9.29781 14.84 9.29781 14.904C9.29781 14.968 9.28181 15 9.24981 15C8.86581 15 8.56715 14.9947 8.35381 14.984L7.08981 14.968L5.82581 14.984C5.60181 14.9947 5.29781 15 4.91381 15ZM11.2503 15.176C10.9516 15.176 10.7116 15.0907 10.5303 14.92C10.3596 14.7387 10.2743 14.4987 10.2743 14.2C10.2743 13.9227 10.3596 13.6987 10.5303 13.528C10.7116 13.3573 10.9516 13.272 11.2503 13.272C11.549 13.272 11.7783 13.3573 11.9383 13.528C12.109 13.688 12.1943 13.912 12.1943 14.2C12.1943 14.5093 12.109 14.7493 11.9383 14.92C11.7783 15.0907 11.549 15.176 11.2503 15.176ZM15.7148 18.392C15.6401 18.584 15.5281 18.712 15.3788 18.776L14.0668 19.4H14.0508C14.0188 19.4 13.9921 19.384 13.9708 19.352C13.9495 19.3307 13.9441 19.3093 13.9548 19.288L18.1148 10.344C18.1575 10.2693 18.1361 10.232 18.0508 10.232C16.5361 10.232 15.4855 10.2533 14.8988 10.296C14.3121 10.3387 13.9175 10.4293 13.7148 10.568C13.5228 10.7067 13.3788 10.9573 13.2828 11.32C13.2615 11.3413 13.2348 11.352 13.2028 11.352C13.1708 11.352 13.1388 11.3467 13.1068 11.336C13.0855 11.3147 13.0801 11.2933 13.0908 11.272L13.8108 8.392C13.8215 8.37067 13.8588 8.36533 13.9228 8.376C13.9868 8.376 14.0135 8.38667 14.0028 8.408C13.9921 8.45067 13.9868 8.504 13.9868 8.568C13.9868 8.67467 14.0348 8.744 14.1308 8.776C14.2375 8.808 14.4455 8.824 14.7548 8.824H18.9948C19.0375 8.824 19.0748 8.85067 19.1068 8.904C19.1495 8.94667 19.1601 8.98933 19.1388 9.032L15.7148 18.392Z" fill="#899D9D"/>
</svg>
