<svg width="24" height="24" viewBox="0 0 24 24" fill="none" xmlns="http://www.w3.org/2000/svg">
<circle cx="12" cy="12" r="11.5" stroke="#899D9D"/>
<path d="M4.78731 14.568C5.71531 13.7147 6.39265 13.0747 6.81931 12.648C7.24598 12.2107 7.54465 11.8373 7.71531 11.528C7.89665 11.2187 7.98731 10.904 7.98731 10.584C7.98731 10.1893 7.88598 9.848 7.68331 9.56C7.48065 9.26133 7.19265 9.112 6.81931 9.112C6.42465 9.112 6.09931 9.288 5.84331 9.64C5.59798 9.98133 5.34731 10.5147 5.09131 11.24C5.09131 11.2507 5.06998 11.256 5.02731 11.256C4.93131 11.256 4.88865 11.24 4.89931 11.208L5.60331 8.472C5.60331 8.45067 5.62465 8.44 5.66731 8.44C5.69931 8.44 5.72598 8.45067 5.74731 8.472C5.77931 8.48267 5.78998 8.49333 5.77931 8.504C5.76865 8.55733 5.76331 8.62133 5.76331 8.696C5.76331 8.87733 5.84331 8.968 6.00331 8.968C6.09931 8.968 6.25931 8.93067 6.48331 8.856C6.94198 8.696 7.36331 8.616 7.74731 8.616C8.33398 8.616 8.79265 8.75467 9.12331 9.032C9.45398 9.30933 9.61931 9.67733 9.61931 10.136C9.61931 10.6907 9.40065 11.1973 8.96331 11.656C8.53665 12.104 7.94465 12.5947 7.18731 13.128L6.54731 13.608C6.51531 13.64 6.50465 13.6667 6.51531 13.688C6.53665 13.7093 6.57398 13.72 6.62731 13.72C7.48065 13.72 8.12065 13.704 8.54731 13.672C8.98465 13.64 9.32598 13.5707 9.57131 13.464C9.82731 13.3467 9.99265 13.1653 10.0673 12.92C10.078 12.888 10.11 12.872 10.1633 12.872C10.2273 12.872 10.2593 12.888 10.2593 12.92L9.92331 14.824C9.92331 14.8667 9.90731 14.9093 9.87531 14.952C9.85398 14.984 9.82198 15 9.77931 15H4.88331C4.84065 15 4.80331 14.968 4.77131 14.904C4.74998 14.84 4.73931 14.776 4.73931 14.712C4.73931 14.648 4.75531 14.6 4.78731 14.568ZM12.3128 15.176C12.0141 15.176 11.7741 15.0907 11.5928 14.92C11.4221 14.7387 11.3368 14.4987 11.3368 14.2C11.3368 13.9227 11.4221 13.6987 11.5928 13.528C11.7741 13.3573 12.0141 13.272 12.3128 13.272C12.6115 13.272 12.8408 13.3573 13.0008 13.528C13.1715 13.688 13.2568 13.912 13.2568 14.2C13.2568 14.5093 13.1715 14.7493 13.0008 14.92C12.8408 15.0907 12.6115 15.176 12.3128 15.176ZM16.7773 18.392C16.7026 18.584 16.5906 18.712 16.4413 18.776L15.1293 19.4H15.1133C15.0813 19.4 15.0546 19.384 15.0333 19.352C15.012 19.3307 15.0066 19.3093 15.0173 19.288L19.1773 10.344C19.22 10.2693 19.1986 10.232 19.1133 10.232C17.5986 10.232 16.548 10.2533 15.9613 10.296C15.3746 10.3387 14.98 10.4293 14.7773 10.568C14.5853 10.7067 14.4413 10.9573 14.3453 11.32C14.324 11.3413 14.2973 11.352 14.2653 11.352C14.2333 11.352 14.2013 11.3467 14.1693 11.336C14.148 11.3147 14.1426 11.2933 14.1533 11.272L14.8733 8.392C14.884 8.37067 14.9213 8.36533 14.9853 8.376C15.0493 8.376 15.076 8.38667 15.0653 8.408C15.0546 8.45067 15.0493 8.504 15.0493 8.568C15.0493 8.67467 15.0973 8.744 15.1933 8.776C15.3 8.808 15.508 8.824 15.8173 8.824H20.0573C20.1 8.824 20.1373 8.85067 20.1693 8.904C20.212 8.94667 20.2226 8.98933 20.2013 9.032L16.7773 18.392Z" fill="#899D9D"/>
</svg>
