<svg width="24" height="24" viewBox="0 0 24 24" fill="none" xmlns="http://www.w3.org/2000/svg">
<circle cx="12" cy="12" r="11.5" stroke="#899D9D"/>
<path d="M8.59106 12.904C9.33773 13.0213 9.89773 13.2933 10.2711 13.72C10.6551 14.1467 10.8471 14.6373 10.8471 15.192C10.8471 15.6933 10.6657 16.2053 10.3031 16.728C9.95106 17.2507 9.40173 17.7413 8.65506 18.2C7.91906 18.6693 7.00173 19.0693 5.90306 19.4C5.8604 19.4107 5.82306 19.3893 5.79106 19.336C5.76973 19.2827 5.7804 19.2453 5.82306 19.224C6.98573 18.7547 7.82306 18.168 8.33506 17.464C8.84706 16.7707 9.10306 16.0827 9.10306 15.4C9.10306 14.7707 8.94306 14.2693 8.62306 13.896C8.30306 13.512 7.87106 13.32 7.32706 13.32C7.11373 13.32 6.89506 13.352 6.67106 13.416C6.63906 13.4267 6.6124 13.4 6.59106 13.336C6.56973 13.272 6.57506 13.2347 6.60706 13.224C7.35373 13.032 7.89773 12.744 8.23906 12.36C8.5804 11.9653 8.75106 11.416 8.75106 10.712C8.75106 10.1787 8.67106 9.77333 8.51106 9.496C8.35106 9.208 8.1164 9.064 7.80706 9.064C7.35906 9.064 6.9484 9.21867 6.57506 9.528C6.2124 9.83733 5.91373 10.2853 5.67906 10.872C5.67906 10.8827 5.65773 10.888 5.61506 10.888C5.51906 10.888 5.4764 10.8667 5.48706 10.824L6.07906 8.488C6.1004 8.46667 6.12173 8.456 6.14306 8.456C6.17506 8.456 6.20706 8.46667 6.23906 8.488C6.27106 8.49867 6.28173 8.50933 6.27106 8.52C6.24973 8.60533 6.23906 8.664 6.23906 8.696C6.23906 8.87733 6.32973 8.968 6.51106 8.968C6.63906 8.968 6.8204 8.92533 7.05506 8.84C7.31106 8.76533 7.52973 8.712 7.71106 8.68C7.8924 8.63733 8.1004 8.616 8.33506 8.616C8.97506 8.616 9.47106 8.79733 9.82306 9.16C10.1857 9.512 10.3671 9.93867 10.3671 10.44C10.3671 10.952 10.2071 11.4373 9.88706 11.896C9.57773 12.344 9.14573 12.68 8.59106 12.904ZM13.0159 15.176C12.7173 15.176 12.4773 15.0907 12.2959 14.92C12.1253 14.7387 12.0399 14.4987 12.0399 14.2C12.0399 13.9227 12.1253 13.6987 12.2959 13.528C12.4773 13.3573 12.7173 13.272 13.0159 13.272C13.3146 13.272 13.5439 13.3573 13.7039 13.528C13.8746 13.688 13.9599 13.912 13.9599 14.2C13.9599 14.5093 13.8746 14.7493 13.7039 14.92C13.5439 15.0907 13.3146 15.176 13.0159 15.176ZM15.3044 15C15.2724 15 15.2564 14.968 15.2564 14.904C15.2564 14.84 15.2724 14.808 15.3044 14.808C15.7204 14.808 16.0244 14.7813 16.2164 14.728C16.4191 14.6747 16.5578 14.5733 16.6324 14.424C16.7071 14.264 16.7444 14.024 16.7444 13.704V10.888C16.7444 10.5467 16.7071 10.3067 16.6324 10.168C16.5684 10.0187 16.4458 9.944 16.2644 9.944C16.0938 9.944 15.7524 10.0453 15.2404 10.248H15.2244C15.1924 10.248 15.1658 10.2213 15.1444 10.168C15.1231 10.1147 15.1338 10.0773 15.1764 10.056L18.0884 8.68C18.0991 8.66933 18.1151 8.664 18.1364 8.664C18.1684 8.664 18.1951 8.68 18.2164 8.712C18.2378 8.73333 18.2484 8.76 18.2484 8.792V13.704C18.2484 14.0347 18.2804 14.2747 18.3444 14.424C18.4084 14.5733 18.5364 14.6747 18.7284 14.728C18.9204 14.7813 19.2244 14.808 19.6404 14.808C19.6724 14.808 19.6884 14.84 19.6884 14.904C19.6884 14.968 19.6724 15 19.6404 15C19.2564 15 18.9578 14.9947 18.7444 14.984L17.4804 14.968L16.2164 14.984C15.9924 14.9947 15.6884 15 15.3044 15Z" fill="#899D9D"/>
</svg>
