<svg width="40" height="50" viewBox="0 0 40 50" fill="none" xmlns="http://www.w3.org/2000/svg">
<path fill-rule="evenodd" clip-rule="evenodd" d="M0.511128 5.20391L2.03017 45.6534C2.07912 46.9356 3.10109 47.9646 4.3821 48.0217L37.2658 49.4987C37.3008 49.4999 37.3369 49.5011 37.3732 49.5011C38.7346 49.5022 39.8395 48.3997 39.8406 47.0382V2.96508L39.8405 2.92681C39.84 2.88594 39.8386 2.84523 39.836 2.80522C39.7484 1.44838 38.5783 0.418231 37.2215 0.504565L34.5194 0.673724L34.7155 6.32973C34.7178 6.41722 34.6898 6.5024 34.6361 6.57122C34.5114 6.72991 34.2792 6.75673 34.1205 6.63072L32.2981 5.19457L30.1421 6.83141C30.0745 6.88274 29.9916 6.9084 29.9065 6.90489C29.7035 6.89556 29.546 6.72524 29.5541 6.52223L29.7829 0.97005L2.82351 2.6559C1.49001 2.73757 0.463277 3.86806 0.511128 5.20391ZM23.5097 19.4431C23.5097 20.4009 29.9683 19.9424 30.8328 19.2692C30.8328 12.7429 27.3317 9.31172 20.9185 9.31172C14.5053 9.31172 10.9131 12.7954 10.9131 18.0186C10.9131 23.2546 14.9755 25.5354 18.4276 27.4732C20.9779 28.9036 23.1923 30.1484 23.1923 32.2577C23.1923 33.6496 22.511 34.4779 21.0094 34.4779C19.0541 34.4779 18.2794 33.4792 18.3728 30.0831C18.3728 29.3481 10.912 29.1182 10.6845 30.0831C10.1059 38.3127 15.2345 40.6869 21.1017 40.6869C26.7857 40.6869 31.2446 37.6582 31.2446 32.1702C31.2446 26.4477 26.9501 24.1716 23.4047 22.2921C20.908 20.9691 18.7811 19.8421 18.7811 17.8459C18.7811 15.8859 20.2372 15.6257 21.0993 15.6257C22.0105 15.6257 23.6474 15.7856 23.5097 19.4431Z" fill="black"/>
</svg>
